<svg width="17" height="16" viewBox="0 0 17 16" fill="none" xmlns="http://www.w3.org/2000/svg">
<g clip-path="url(#clip0_51_288)">
<path d="M8.12067 3.43567C5.95448 3.43567 4.20081 5.16666 4.20081 7.30061C4.20081 9.43645 5.9564 11.1655 8.12067 11.1655C10.2868 11.1655 12.0405 9.43454 12.0405 7.30061C12.0405 5.16478 10.2849 3.43567 8.12067 3.43567ZM8.12067 9.80925C6.71452 9.80925 5.57638 8.68643 5.57638 7.30061C5.57638 5.9148 6.71515 4.79197 8.12067 4.79197C9.5261 4.79197 10.6649 5.9148 10.6649 7.30061C10.6656 8.68643 9.5268 9.80925 8.12067 9.80925Z" fill="white"/>
<path d="M11.7889 0.0485599C10.3464 -0.017787 6.77346 -0.0145663 5.32965 0.0485599C4.06093 0.107177 2.94182 0.409281 2.0396 1.29884C0.53177 2.78553 0.724495 4.78882 0.724495 7.72678C0.724495 10.7336 0.554635 12.6905 2.0396 14.1547C3.55331 15.6466 5.61449 15.4514 8.55896 15.4514C11.5799 15.4514 12.6225 15.4533 13.6906 15.0456C15.143 14.4896 16.2392 13.2098 16.3463 10.9108C16.4143 9.48785 16.4104 5.96567 16.3463 4.54211C16.217 1.82834 14.7398 0.182542 11.7889 0.0485599ZM14.0722 13.171C13.0837 14.1457 11.7125 14.0587 8.54003 14.0587C5.27347 14.0587 3.96359 14.1064 3.0078 13.1614C1.90698 12.0811 2.10624 10.3465 2.10624 7.71642C2.10624 4.15755 1.73581 1.59451 5.35839 1.41157C6.1907 1.38258 6.4357 1.37292 8.53083 1.37292L8.56027 1.39224C12.0417 1.39224 14.7732 1.03282 14.9372 4.60395C14.9744 5.4188 14.9829 5.66357 14.9829 7.72609C14.9823 10.9095 15.0437 12.2087 14.0722 13.171Z" fill="white"/>
<path d="M12.9116 4.29441C13.3926 4.29441 13.7826 3.90987 13.7826 3.43553C13.7826 2.96119 13.3926 2.57666 12.9116 2.57666C12.4305 2.57666 12.0405 2.96119 12.0405 3.43553C12.0405 3.90987 12.4305 4.29441 12.9116 4.29441Z" fill="white"/>
</g>
<defs>
<clipPath id="clip0_51_288">
<rect width="17" height="16" fill="white"/>
</clipPath>
</defs>
</svg>
