<svg width="18" height="15" viewBox="0 0 18 15" fill="none" xmlns="http://www.w3.org/2000/svg">
<g clip-path="url(#clip0_51_286)">
<path d="M16.1505 3.66287C16.8825 3.15644 17.4982 2.52432 18 1.79647C17.3302 2.0822 16.6178 2.27148 15.8738 2.36356C16.6388 1.91851 17.223 1.21917 17.4975 0.376592C16.7843 0.790935 15.9967 1.08325 15.1575 1.24693C14.4802 0.543938 13.515 0.109131 12.462 0.109131C10.419 0.109131 8.77425 1.72486 8.77425 3.70525C8.77425 3.99025 8.799 4.26428 8.85975 4.52517C5.79225 4.37902 3.07725 2.9467 1.25325 0.763897C0.93525 1.30248 0.74775 1.91851 0.74775 2.58132C0.74775 3.82655 1.4055 4.93001 2.38725 5.56944C1.794 5.55848 1.21275 5.3904 0.72 5.1266V5.16605C0.72 6.91332 1.99875 8.3646 3.6765 8.69933C3.37575 8.77973 3.04875 8.81767 2.709 8.81767C2.47275 8.81767 2.23425 8.80455 2.01075 8.75632C2.4885 10.1798 3.846 11.227 5.4585 11.2614C4.203 12.2179 2.6085 12.7945 0.88275 12.7945C0.5805 12.7945 0.29025 12.7814 0 12.7456C1.635 13.7723 3.5715 14.3591 5.661 14.3591C12.1732 14.3591 16.4175 9.06547 16.1505 3.66287Z" fill="white"/>
</g>
<defs>
<clipPath id="clip0_51_286">
<rect width="18" height="15" fill="white"/>
</clipPath>
</defs>
</svg>
