<svg width="18" height="14" viewBox="0 0 18 14" fill="none" xmlns="http://www.w3.org/2000/svg">
<g clip-path="url(#clip0_51_294)">
<path d="M17.6017 2.00257L17.6243 2.15449C17.4068 1.35692 16.8195 0.741503 16.0733 0.517503L16.0575 0.513627C14.6543 0.119884 9.00759 0.119884 9.00759 0.119884C9.00759 0.119884 3.37518 0.112133 1.9577 0.513627C1.1972 0.741503 0.609213 1.35692 0.395466 2.13821L0.391716 2.15449C-0.132528 4.98432 -0.136278 8.38464 0.414966 11.4144L0.391716 11.261C0.609213 12.0586 1.19645 12.6739 1.94269 12.8979L1.95845 12.9018C3.36018 13.2963 9.00837 13.2963 9.00837 13.2963C9.00837 13.2963 14.64 13.2963 16.0583 12.9018C16.8195 12.6739 17.4075 12.0586 17.6212 11.2772L17.625 11.261C17.8635 9.9449 18 8.43035 18 6.88328C18 6.8267 18 6.76935 17.9992 6.71199C18 6.65928 18 6.5965 18 6.53372C18 4.98587 17.8635 3.47135 17.6017 2.00257ZM7.20614 9.53791V3.88525L11.9056 6.71587L7.20614 9.53791Z" fill="white"/>
</g>
<defs>
<clipPath id="clip0_51_294">
<rect width="18" height="14" fill="white"/>
</clipPath>
</defs>
</svg>
